# xmcd
#
# Track frame offsets: 
#        150
#        12779
#        25007
#        37356
#        51566
#        66922
#        79883
#        92361
#        106563
#        117621
#        130881
#        141674
#        156642
#        170437
#        183188
#        195861
#        205236
#        218120
#        232211
#        247072
#
# Disc length: 3470 seconds
#
# Revision: 3
# Processed by: cddbd v1.5.2PL0 Copyright (c) Steve Scherf et al.
# Submitted via: ExactAudioCopy v0.99pb4
#
DISCID=270d8c14
DTITLE=Various Artist - Diggin' Deeper: 200 Legendary Blues Treasures [disc 9
DTITLE=]
DYEAR=2004
DGENRE=Blues
TTITLE0=Bessie Smith - Sam Jones Blues
TTITLE1=Brownie McGhee - Back Door Stranger
TTITLE2=John Lee Hooker - War Is Over
TTITLE3=Lightnin' Hopkins - That Mean Old Twister
TTITLE4=Jimmy Yancey - Beezum Blues
TTITLE5=Mississippi John Hurt - Blue Harvest Blues
TTITLE6=Memphis Minnie - Me and My Chauffeur Blues
TTITLE7=Muddy Waters - I Feel like Going Home
TTITLE8=Sleepy John Estes - Liquor Store Blues
TTITLE9=Joe Turner - It's the Same Old Story
TTITLE10=Robert Johnson - From Four 'til Late
TTITLE11=Ma Rainey - Jealous Hearted Blues
TTITLE12=Blind Willie McTell - Rollin' Mama Blues
TTITLE13=John Lee Williamson - Welfare Store Blues
TTITLE14=Bukka White - Pinebluff, Arkansas
TTITLE15=Blind Boy Fuller and Sonny Terry - Fox Chase
TTITLE16=Big Bill Broonzy - How You Want It Done
TTITLE17=Arthur Crudup - Kind Lover Blues
TTITLE18=Leadbelly - The Bourgeois Blues
TTITLE19=Kokomo Arnold - Mean Old Twister
EXTD=10CD: Documents/Membran 222024-321 (2004), EAN 4011222220240, ISB
EXTD=N 978-3-87562-765-8.
EXTT0=(A. Bernard/R. Turk/J.R. Robinson)
EXTT1=(Walter McGhee)
EXTT2=(John Lee Hooker/Bernard Besman)
EXTT3=(Sam Hopkins/Mack McCormick)
EXTT4=(Jimmy Yancey)
EXTT5=(John Hurt)
EXTT6=(E. Lawler)
EXTT7=(McKinley Morganfield)
EXTT8=(John Estes)
EXTT9=(Turner)
EXTT10=(Robert Johnson)
EXTT11=(trad./Ma Rainey)
EXTT12=(Willie McTell)
EXTT13=(John Lee Williamson)
EXTT14=(Bukka White)
EXTT15=(D.F. Bailey - adapt. Sonny Terry)
EXTT16=(Bill Broonzy)
EXTT17=(Arthur Crudup/J. McCoy)
EXTT18=(Huddie Ledbetter)
EXTT19=(James Arnold)
PLAYORDER=
